<?xml version="1.0" encoding="utf-8"?>
<!-- Generator: Adobe Illustrator 14.0.0, SVG Export Plug-In . SVG Version: 6.00 Build 43363)  -->
<!DOCTYPE svg PUBLIC "-//W3C//DTD SVG 1.1//EN" "http://www.w3.org/Graphics/SVG/1.1/DTD/svg11.dtd">
<svg version="1.1" xmlns="http://www.w3.org/2000/svg" xmlns:xlink="http://www.w3.org/1999/xlink" x="0px" y="0px" width="2272px"
	 height="1872px" viewBox="0 0 2272 1872" enable-background="new 0 0 2272 1872" xml:space="preserve">
<g id="Back">
	<rect fill="#F3FFC2" width="2272" height="1872"/>
	<rect y="1579.704" fill="#EDDA8C" width="2272" height="292.296"/>
	<rect y="1534.7" fill="#C9B873" width="2272" height="45.004"/>
</g>
<g id="_x36__1_">
	<g>
		<path fill="#168952" d="M661.392,5.761c-16.374,9.459-32.093,20.393-47.044,31.981c-14.987,11.579-29.262,24-42.411,37.372
			c-13.122,13.383-25.304,27.559-35.638,42.789c-10.336,15.197-18.98,31.351-24.796,48.206c-5.927,16.799-9.064,34.248-8.92,51.555
			c0.062,8.653,0.924,17.264,2.539,25.743c0.332,2.127,0.891,4.227,1.349,6.333c0.432,2.111,1.052,4.192,1.619,6.277
			c0.532,2.092,1.2,4.157,1.879,6.216l0.994,3.091l1.181,3.203c5.949,17.225,13.311,33.879,21.942,49.903
			c8.623,16.037,18.505,31.434,29.242,46.505c2.695,3.759,5.416,7.509,8.245,11.234c2.767,3.733,5.632,7.459,8.508,11.184
			c5.754,7.436,11.791,14.83,17.792,22.371c12.057,15.142,24.563,30.594,35.732,48.545c5.637,8.845,10.63,18.627,15.038,28.801
			c2.013,5.236,4.168,10.408,5.656,15.953c1.766,5.401,2.896,11.086,4.059,16.72c3.992,22.816,2.322,46.497-3.451,67.639
			l-2.382,7.835c-0.804,2.603-1.557,5.235-2.563,7.705l-2.85,7.507l-1.432,3.743c-0.505,1.226-1.068,2.41-1.619,3.608l-3.324,7.154
			l-1.665,3.566c-0.555,1.188-1.151,2.249-1.724,3.379c-2.355,4.442-4.527,8.93-7.068,13.295
			c-4.965,8.763-10.049,17.482-15.798,25.893c-5.525,8.499-11.817,16.663-18.325,24.607c-1.667,1.972-3.386,3.919-5.109,5.843
			c-1.685,1.943-3.491,3.825-5.319,5.686c-3.554,3.77-7.394,7.37-11.302,10.845c-7.878,6.932-16.53,13.232-26.041,18.264
			c-9.521,4.958-19.89,8.77-30.721,9.924c-10.808,1.117-21.796-0.095-31.287-5.735l2.186-4.757c0.865,0.103,2.088,0.23,3.16,0.245
			c1.099,0.053,2.21,0.05,3.312,0c2.202-0.067,4.402-0.417,6.536-0.811c4.286-0.838,8.381-2.243,12.269-3.994
			c7.772-3.571,14.676-8.697,20.919-14.545c12.504-11.764,22.34-26.652,31.06-42.146c8.567-15.703,16.029-32.219,22.702-49.219
			c1.682-4.229,3.25-8.563,4.901-12.816c0.392-1.06,0.85-2.152,1.187-3.185l1.016-3.096l2.038-6.17l1.025-3.068l0.842-3.069
			l1.698-6.117c0.64-2.033,0.987-4.065,1.407-6.091l1.258-6.059c0.435-2.008,0.601-4,0.926-5.992
			c0.25-1.987,0.675-3.983,0.803-5.951c0.108-1.968,0.282-3.922,0.446-5.877c0.069-0.976,0.203-1.957,0.227-2.925l-0.009-2.893
			c-0.014-1.926,0.026-3.851,0.062-5.77l-0.38-5.694c-0.067-0.947-0.087-1.9-0.184-2.844l-0.393-2.816
			c-0.273-1.876-0.43-3.765-0.76-5.637c-1.406-7.476-3.354-14.945-6.032-22.481c-0.652-1.881-1.485-3.766-2.197-5.663l-1.107-2.847
			c-0.39-0.949-0.859-1.895-1.283-2.844l-2.563-5.727l-2.898-5.742c-0.91-1.928-1.946-3.857-3.015-5.788l-3.169-5.803
			c-2.301-3.878-4.461-7.751-6.922-11.663l-3.601-5.866l-3.757-5.897c-2.472-3.918-5.114-7.917-7.701-11.855l-15.97-24.112
			c-2.705-4.057-5.404-8.123-8.062-12.28c-2.688-4.103-5.311-8.297-7.912-12.516c-10.478-16.806-20.288-34.349-28.703-52.624
			c-8.433-18.264-15.458-37.243-20.836-56.604l-1.029-3.63l-0.926-3.829c-0.628-2.546-1.235-5.096-1.7-7.69
			c-0.499-2.582-1.039-5.148-1.384-7.765c-0.371-2.608-0.829-5.193-1.053-7.824c-1.18-10.464-1.431-21.047-0.708-31.532
			c1.415-20.994,6.819-41.46,15.086-60.213c8.321-18.776,19.459-35.815,32.001-51.292c12.58-15.477,26.617-29.442,41.611-42.05
			c30.035-25.192,63.031-45.914,98.294-62.009L661.392,5.761z"/>
		<path fill="#146D40" d="M600.497,512.932c1.66,5.438,2.974,10.853,3.993,16.27c0.331,1.873,0.487,3.761,0.76,5.638l0.393,2.816
			c0.097,0.944,0.116,1.896,0.183,2.844l0.38,5.694c-0.036,1.919-0.076,3.844-0.062,5.77l0.009,2.893
			c-0.023,0.969-0.157,1.95-0.227,2.925c-0.164,1.955-0.337,3.91-0.445,5.877c-0.128,1.967-0.553,3.963-0.803,5.951
			c-0.325,1.992-0.491,3.984-0.926,5.992l-1.258,6.059c-0.419,2.025-0.768,4.058-1.407,6.091l-1.698,6.117l-0.842,3.069
			l-1.025,3.068l-2.039,6.17l-1.015,3.096c-0.337,1.033-0.795,2.125-1.187,3.185c-1.651,4.254-3.219,8.588-4.901,12.816
			c-6.673,17-14.135,33.516-22.702,49.219c-8.72,15.494-18.556,30.382-31.06,42.146c-6.243,5.848-13.147,10.975-20.919,14.545
			c-3.887,1.751-7.983,3.156-12.269,3.994c-2.133,0.394-4.334,0.744-6.535,0.811c-1.103,0.05-2.214,0.053-3.313,0
			c-1.072-0.015-2.295-0.143-3.16-0.245l-2.186,4.757c9.49,5.64,20.479,6.852,31.287,5.734c10.831-1.154,21.2-4.965,30.721-9.923
			c9.511-5.032,18.163-11.332,26.041-18.264c3.908-3.476,7.748-7.075,11.302-10.845c1.828-1.861,3.634-3.742,5.319-5.686
			c1.723-1.924,3.443-3.871,5.108-5.843c6.507-7.945,12.8-16.108,18.325-24.607c5.749-8.411,10.833-17.13,15.799-25.893
			c2.541-4.365,4.713-8.853,7.068-13.295c0.573-1.13,1.169-2.19,1.724-3.379l1.666-3.566l3.324-7.154
			c0.551-1.198,1.115-2.382,1.619-3.608l1.432-3.743l2.85-7.507c1.005-2.47,1.759-5.102,2.563-7.705l2.382-7.835
			c3.697-13.541,5.7-28.123,5.622-42.852C641.7,533.549,620.781,523.393,600.497,512.932z"/>
		<path fill="#AECE2B" d="M572.986,718.925c0,0-61.081,89.003-212.91,33.158s-62.826-425.82-83.768-458.978
			c0,0,102.965,76.787,184.987,78.532C461.295,371.638,499.689,738.122,572.986,718.925z"/>
		<path fill="#A0B526" d="M552.406,714.12c-28.003,14.922-76.088,26.734-148.847,1.661c-128.288-44.209-53.085-337.091-70.78-363.34
			c0,0,69.28,48.404,133.443,59.805c-3.273-24.827-4.927-40.608-4.927-40.608c-82.022-1.745-184.987-78.532-184.987-78.532
			c20.942,33.158-68.061,403.133,83.768,458.978s212.91-33.158,212.91-33.158C565.788,720.811,558.927,718.962,552.406,714.12z"/>
		<path fill="#FFC001" d="M279.476,174.012c-4.939-6.872-15.562-5.003-17.631,3.202c-9.965,39.523-18.996,119.078,51.112,165.477
			c77.32,51.172,124.469,26.683,144.735,51.926c5.369,6.687,15.992,4.165,17.445-4.287c3.506-20.396,5.814-45.938,0.12-63.52
			C451.697,254.068,320.705,231.369,279.476,174.012z"/>
		<path fill="#EDAB06" d="M475.137,372.877c-1.453,8.452-12.076,10.974-17.445,4.287c-20.267-25.243-67.415-0.753-144.735-51.926
			c-42.497-28.125-55.911-68.432-57.67-104.622c-1.871,40.052,8.183,89.322,57.67,122.074
			c77.32,51.172,124.469,26.683,144.735,51.926c5.369,6.687,15.992,4.165,17.445-4.287c2.425-14.108,4.273-30.676,3.3-45.371
			C477.906,354.522,476.634,364.169,475.137,372.877z"/>
		<path fill="#EE7E01" d="M308.2,222.55c-3.276-3.816-10.323-2.779-11.695,1.779c-6.61,21.953-12.6,66.142,33.904,91.915
			c51.289,28.424,82.563,14.821,96.007,28.842c3.561,3.714,10.607,2.313,11.571-2.381c2.326-11.329,3.857-25.517,0.08-35.282
			C422.438,267.018,335.548,254.409,308.2,222.55z"/>
		<g>
			<circle fill="#A0B526" cx="382.763" cy="455.406" r="8.726"/>
			<ellipse fill="#A0B526" cx="374.91" cy="417.012" rx="7.853" ry="5.236"/>
			<circle fill="#A0B526" cx="342.624" cy="500.78" r="5.236"/>
			<ellipse fill="#A0B526" cx="439.481" cy="484.201" rx="6.108" ry="4.363"/>
			<circle fill="#A0B526" cx="434.245" cy="435.336" r="6.108"/>
			<circle fill="#A0B526" cx="386.253" cy="507.761" r="3.49"/>
			<ellipse fill="#A0B526" cx="458.677" cy="559.243" rx="9.598" ry="6.108"/>
			<ellipse fill="#A0B526" cx="367.929" cy="589.783" rx="9.598" ry="5.235"/>
			<ellipse fill="#A0B526" cx="400.215" cy="548.772" rx="5.235" ry="4.363"/>
			<ellipse fill="#A0B526" cx="517.141" cy="677.914" rx="1.745" ry="2.618"/>
			<ellipse fill="#A0B526" cx="470.894" cy="672.679" rx="11.344" ry="4.363"/>
			<circle fill="#A0B526" cx="434.245" cy="686.64" r="4.363"/>
			<ellipse fill="#A0B526" cx="501.434" cy="714.563" rx="6.981" ry="2.618"/>
			<ellipse fill="#A0B526" cx="430.755" cy="596.764" rx="6.108" ry="3.49"/>
			<ellipse fill="#A0B526" cx="373.165" cy="628.177" rx="6.108" ry="3.49"/>
			<circle fill="#A0B526" cx="482.237" cy="624.687" r="3.49"/>
			<ellipse fill="#A0B526" cx="430.755" cy="636.03" rx="6.108" ry="2.617"/>
			<ellipse fill="#A0B526" cx="438.608" cy="516.486" rx="5.235" ry="1.745"/>
			<circle fill="#A0B526" cx="374.91" cy="679.659" r="2.618"/>
			<ellipse fill="#A0B526" cx="348.732" cy="384.727" rx="6.108" ry="2.618"/>
		</g>
	</g>
</g>
<g id="_x35_">
	<g>
		<path fill="#168952" d="M1681.287,4.586c16.374,13.857,32.094,29.875,47.045,46.852c14.986,16.963,29.262,35.16,42.41,54.75
			c13.121,19.605,25.303,40.374,35.638,62.686c10.336,22.264,18.98,45.929,24.796,70.621c5.927,24.61,9.064,50.173,8.92,75.528
			c-0.061,12.676-0.923,25.292-2.538,37.712c-0.332,3.116-0.891,6.192-1.349,9.278c-0.432,3.093-1.053,6.142-1.619,9.197
			c-0.531,3.064-1.199,6.089-1.879,9.106l-0.994,4.529l-1.181,4.692c-5.949,25.234-13.311,49.633-21.942,73.107
			c-8.622,23.494-18.505,46.05-29.242,68.13c-2.694,5.507-5.416,11.001-8.245,16.458c-2.767,5.469-5.632,10.928-8.508,16.385
			c-5.755,10.894-11.79,21.725-17.792,32.772c-12.057,22.183-24.563,44.82-35.732,71.119c-5.637,12.958-10.63,27.289-15.038,42.193
			c-2.013,7.671-4.168,15.249-5.656,23.371c-1.766,7.913-2.896,16.241-4.059,24.496c-3.991,33.425-2.323,68.118,3.45,99.091
			l2.382,11.478c0.804,3.814,1.558,7.67,2.563,11.288l2.85,10.998l1.432,5.482c0.505,1.796,1.068,3.531,1.619,5.286l3.323,10.48
			l1.666,5.225c0.555,1.741,1.15,3.294,1.724,4.95c2.354,6.508,4.527,13.082,7.068,19.477c4.965,12.837,10.049,25.612,15.798,37.934
			c5.525,12.451,11.817,24.41,18.325,36.05c1.666,2.889,3.386,5.741,5.108,8.56c1.686,2.847,3.491,5.603,5.319,8.329
			c3.554,5.522,7.394,10.796,11.302,15.889c7.878,10.155,16.53,19.384,26.041,26.756c9.521,7.264,19.891,12.847,30.721,14.538
			c10.809,1.637,21.797-0.139,31.287-8.401l-2.186-6.97c-0.865,0.15-2.088,0.337-3.16,0.359c-1.099,0.077-2.21,0.072-3.313-0.001
			c-2.201-0.098-4.401-0.611-6.535-1.188c-4.286-1.228-8.382-3.285-12.269-5.851c-7.772-5.23-14.677-12.741-20.92-21.31
			c-12.504-17.233-22.34-39.044-31.06-61.742c-8.566-23.005-16.028-47.2-22.701-72.104c-1.683-6.195-3.251-12.544-4.901-18.776
			c-0.392-1.553-0.85-3.153-1.187-4.666l-1.016-4.536l-2.038-9.039l-1.026-4.494l-0.842-4.497l-1.698-8.96
			c-0.64-2.979-0.987-5.957-1.407-8.923l-1.258-8.876c-0.435-2.942-0.601-5.859-0.926-8.778c-0.25-2.912-0.676-5.836-0.803-8.718
			c-0.108-2.883-0.282-5.746-0.446-8.61c-0.069-1.429-0.202-2.867-0.227-4.286l0.01-4.238c0.014-2.822-0.026-5.641-0.063-8.453
			l0.38-8.342c0.067-1.388,0.087-2.783,0.184-4.166l0.393-4.126c0.273-2.749,0.43-5.515,0.76-8.259
			c1.407-10.951,3.354-21.894,6.032-32.934c0.652-2.756,1.485-5.518,2.197-8.297l1.106-4.17c0.39-1.391,0.859-2.776,1.283-4.167
			l2.563-8.391l2.898-8.412c0.91-2.825,1.946-5.65,3.016-8.479l3.169-8.502c2.301-5.682,4.461-11.354,6.922-17.085l3.602-8.594
			l3.757-8.64c2.472-5.74,5.113-11.598,7.7-17.368l15.971-35.324c2.705-5.942,5.404-11.899,8.062-17.99
			c2.688-6.01,5.311-12.155,7.912-18.335c10.479-24.621,20.288-50.321,28.703-77.094c8.434-26.757,15.458-54.56,20.836-82.924
			l1.029-5.317l0.927-5.609c0.628-3.731,1.235-7.467,1.7-11.267c0.498-3.782,1.039-7.542,1.384-11.375
			c0.371-3.821,0.829-7.607,1.053-11.462c1.181-15.329,1.431-30.833,0.708-46.193c-1.415-30.757-6.819-60.738-15.086-88.212
			c-8.321-27.508-19.46-52.469-32.002-75.143c-12.58-22.672-26.617-43.133-41.61-61.603c-30.035-36.906-63.031-67.264-98.294-90.843
			L1681.287,4.586z"/>
		<path fill="#146D40" d="M1742.183,747.589c-1.659,7.967-2.975,15.9-3.993,23.836c-0.331,2.744-0.487,5.51-0.761,8.259
			l-0.393,4.126c-0.097,1.382-0.116,2.777-0.183,4.166l-0.381,8.342c0.036,2.812,0.076,5.631,0.063,8.453l-0.01,4.238
			c0.023,1.419,0.157,2.856,0.227,4.286c0.164,2.864,0.338,5.727,0.445,8.61c0.128,2.882,0.554,5.807,0.804,8.718
			c0.325,2.918,0.491,5.836,0.926,8.777l1.259,8.876c0.42,2.967,0.768,5.945,1.406,8.923l1.698,8.96l0.843,4.497l1.025,4.494
			l2.038,9.039l1.015,4.536c0.338,1.513,0.796,3.113,1.188,4.666c1.65,6.232,3.219,12.581,4.901,18.776
			c6.673,24.904,14.135,49.1,22.701,72.104c8.72,22.698,18.556,44.509,31.06,61.742c6.243,8.568,13.147,16.079,20.92,21.31
			c3.887,2.565,7.982,4.623,12.269,5.851c2.134,0.577,4.334,1.091,6.536,1.188c1.102,0.073,2.213,0.078,3.312,0.001
			c1.072-0.022,2.295-0.209,3.16-0.359l2.186,6.97c-9.49,8.263-20.479,10.038-31.286,8.4c-10.831-1.69-21.2-7.273-30.722-14.537
			c-9.511-7.372-18.163-16.601-26.04-26.756c-3.908-5.093-7.749-10.366-11.303-15.889c-1.828-2.727-3.634-5.482-5.319-8.329
			c-1.723-2.818-3.442-5.671-5.108-8.56c-6.508-11.64-12.8-23.599-18.324-36.05c-5.75-12.321-10.834-25.097-15.799-37.934
			c-2.541-6.396-4.713-12.969-7.068-19.477c-0.573-1.655-1.169-3.209-1.724-4.95l-1.665-5.225l-3.324-10.48
			c-0.551-1.755-1.114-3.49-1.619-5.286l-1.432-5.482l-2.85-10.998c-1.005-3.619-1.759-7.474-2.563-11.288l-2.382-11.478
			c-3.697-19.837-5.7-41.2-5.622-62.778C1700.979,777.792,1721.898,762.914,1742.183,747.589z"/>
		<path fill="#AECE2B" d="M1774.929,1057.007c0,0,61.081,89.003,212.91,33.158c151.829-55.846,62.825-425.82,83.768-458.978
			c0,0-102.965,76.788-184.987,78.533C1886.619,709.72,1848.226,1076.203,1774.929,1057.007z"/>
		<path fill="#A0B526" d="M1795.509,1052.201c28.003,14.923,76.089,26.734,148.847,1.661
			c128.288-44.208,53.085-337.091,70.779-363.34c0,0-69.279,48.403-133.442,59.805c3.272-24.827,4.927-40.607,4.927-40.607
			c82.022-1.745,184.987-78.533,184.987-78.533c-20.942,33.158,68.062,403.132-83.768,458.978
			c-151.829,55.845-212.91-33.158-212.91-33.158C1782.127,1058.892,1788.987,1057.044,1795.509,1052.201z"/>
		<path fill="#FFC001" d="M2068.439,512.093c4.939-6.871,15.562-5.003,17.631,3.203c9.965,39.522,18.995,119.078-51.112,165.476
			c-77.32,51.172-124.469,26.683-144.735,51.926c-5.368,6.687-15.991,4.165-17.444-4.287c-3.507-20.396-5.814-45.938-0.12-63.52
			C1896.218,592.15,2027.209,569.451,2068.439,512.093z"/>
		<path fill="#EDAB06" d="M1872.778,710.959c1.453,8.452,12.076,10.974,17.444,4.287c20.267-25.243,67.415-0.753,144.735-51.926
			c42.497-28.125,55.911-68.432,57.67-104.622c1.87,40.052-8.183,89.322-57.67,122.074c-77.32,51.172-124.469,26.683-144.735,51.926
			c-5.368,6.687-15.991,4.165-17.444-4.287c-2.426-14.108-4.273-30.676-3.3-45.371
			C1870.009,692.604,1871.281,702.25,1872.778,710.959z"/>
		<path fill="#EE7E01" d="M2039.715,560.632c3.276-3.817,10.323-2.779,11.695,1.779c6.609,21.953,12.6,66.142-33.904,91.915
			c-51.288,28.424-82.563,14.821-96.006,28.842c-3.562,3.714-10.607,2.313-11.572-2.381c-2.325-11.329-3.856-25.517-0.079-35.282
			C1925.477,605.1,2012.366,592.491,2039.715,560.632z"/>
		<g>
			<circle fill="#A0B526" cx="1965.151" cy="793.487" r="8.726"/>
			<ellipse fill="#A0B526" cx="1973.005" cy="755.094" rx="7.854" ry="5.235"/>
			<circle fill="#A0B526" cx="2005.29" cy="838.861" r="5.235"/>
			<ellipse fill="#A0B526" cx="1908.434" cy="822.282" rx="6.108" ry="4.363"/>
			<circle fill="#A0B526" cx="1913.669" cy="773.418" r="6.108"/>
			<circle fill="#A0B526" cx="1961.661" cy="845.842" r="3.49"/>
			<ellipse fill="#A0B526" cx="1889.237" cy="897.324" rx="9.598" ry="6.108"/>
			<ellipse fill="#A0B526" cx="1979.985" cy="927.865" rx="9.599" ry="5.235"/>
			<ellipse fill="#A0B526" cx="1947.7" cy="886.854" rx="5.235" ry="4.363"/>
			<ellipse fill="#A0B526" cx="1830.774" cy="1015.995" rx="1.745" ry="2.618"/>
			<ellipse fill="#A0B526" cx="1877.021" cy="1010.76" rx="11.344" ry="4.363"/>
			<circle fill="#A0B526" cx="1913.669" cy="1024.722" r="4.363"/>
			<ellipse fill="#A0B526" cx="1846.48" cy="1052.644" rx="6.98" ry="2.618"/>
			<ellipse fill="#A0B526" cx="1917.16" cy="934.845" rx="6.108" ry="3.491"/>
			<ellipse fill="#A0B526" cx="1974.75" cy="966.258" rx="6.108" ry="3.491"/>
			<circle fill="#A0B526" cx="1865.677" cy="962.768" r="3.491"/>
			<ellipse fill="#A0B526" cx="1917.16" cy="974.111" rx="6.108" ry="2.618"/>
			<ellipse fill="#A0B526" cx="1909.306" cy="854.568" rx="5.236" ry="1.745"/>
			<circle fill="#A0B526" cx="1973.004" cy="1017.74" r="2.618"/>
			<ellipse fill="#A0B526" cx="1999.182" cy="722.808" rx="6.108" ry="2.618"/>
		</g>
	</g>
</g>
<g id="_x34__1_">
	<path fill="#A1C13E" d="M1100.882,1124.155c-12.216-12.216-104.71-113.436-92.494-171.025
		c12.216-57.591,113.436,171.025,113.436,171.025s-57.59-207.674-20.942-230.361c36.649-22.687,29.667,221.636,29.667,221.636
		s-5.235-120.416,36.648-162.3c41.884-41.884-36.648,211.164-36.648,211.164L1100.882,1124.155z"/>
	<path fill="#BBCE67" d="M1253.43,1124.155c12.217-12.216,104.71-113.436,92.494-171.025
		c-12.217-57.591-113.436,171.025-113.436,171.025s57.59-207.674,20.941-230.361c-36.648-22.687-29.667,221.636-29.667,221.636
		s5.235-120.416-36.648-162.3c-41.884-41.884,36.648,211.164,36.648,211.164L1253.43,1124.155z"/>
</g>
<g id="_x33__1_">
	<g>
		<g>
			<path fill="#146D40" d="M1220.086,1370.6c-26.323-13.539-50.961-29.956-74.172-48.661c-11.601-9.354-22.652-19.485-33.116-30.35
				c-10.437-10.884-20.27-22.549-28.976-35.276c-8.636-12.754-16.197-26.544-21.864-41.438c-5.691-14.859-9.291-30.92-10.085-47.378
				c-0.339-8.223,0.025-16.516,1.082-24.729c1.073-8.212,2.902-16.311,5.289-24.201l3.282-10.641
				c1.041-3.323,2.071-6.646,2.928-10.011c0.869-3.361,1.895-6.681,2.637-10.063l2.333-10.107
				c5.803-26.993,7.096-54.648,4.285-80.841c-1.401-13.079-3.59-25.854-6.882-37.91c-0.891-2.971-1.639-6.031-2.652-8.904
				l-1.418-4.379c-0.564-1.399-1.099-2.81-1.614-4.231c-0.949-2.91-2.346-5.475-3.432-8.271l-1.935-3.927l-0.961-1.974l-1.083-1.848
				c-2.652-5.159-5.938-9.646-9.399-13.832c-3.39-4.307-7.368-7.729-11.54-10.816c-2.059-1.637-4.328-2.817-6.585-4.152
				c-1.178-0.525-2.362-1.054-3.54-1.659c-1.18-0.601-2.455-0.918-3.69-1.427c-0.628-0.216-1.241-0.515-1.89-0.679l-1.958-0.492
				c-1.315-0.316-2.617-0.771-3.998-0.929l-4.157-0.731l-5.102-0.365c-13.663-1.152-27.305-1.479-40.358,0.331
				c-6.598,0.8-12.917,2.373-18.827,4.876l-1.14,0.456l-1.039,0.552l-2.14,1.11c-0.757,0.351-1.333,0.835-2.029,1.257
				c-0.655,0.446-1.401,0.859-1.98,1.372l-1.905,1.506l-1.734,1.688c-0.496,0.598-1.062,1.217-1.527,1.855
				c-0.479,0.6-0.966,1.389-1.279,1.831l-0.517,0.73c-0.759,1.074-2.246,1.329-3.319,0.569c-0.654-0.463-1.004-1.209-1.006-1.954
				c0.005-1.36,0.111-2.305,0.275-3.414c0.175-1.07,0.468-2.072,0.733-3.132l1.074-3.016c0.43-0.962,0.897-1.914,1.367-2.887
				c0.446-1.007,1.068-1.826,1.627-2.742c0.591-0.872,1.13-1.858,1.802-2.652c0.651-0.826,1.322-1.647,2.009-2.468l1.036-1.237
				l1.111-1.106c2.93-3.101,6.243-5.642,9.639-8.13c1.718-1.135,3.483-2.222,5.26-3.332c1.778-1.133,3.602-1.933,5.428-2.917
				c14.729-7.388,30.407-11.228,45.875-13.645l5.843-0.906l6.798-0.479c2.282-0.231,4.589-0.006,6.905,0.054l3.482,0.162
				c1.163,0.064,2.313,0.277,3.475,0.417c2.309,0.356,4.672,0.566,6.962,1.107c2.296,0.523,4.586,1.122,6.883,1.725
				c4.468,1.494,9.001,3.04,13.216,5.174c8.52,4.09,16.409,9.463,23.197,15.649c6.762,6.217,12.839,13.077,17.842,20.373l1.91,2.741
				l1.718,2.805c1.136,1.875,2.296,3.751,3.396,5.645c1.025,1.908,1.999,3.845,2.984,5.779c0.484,0.969,0.996,1.934,1.453,2.909
				l1.294,2.94c0.867,1.96,1.714,3.93,2.532,5.912l2.148,5.982c1.54,3.979,2.5,8.036,3.689,12.066
				c4.297,16.178,5.933,32.547,5.991,48.627c-0.028,16.096-1.602,31.915-4.226,47.378c-2.604,15.469-6.222,30.597-10.488,45.425
				l-3.438,11.034c-1.115,3.686-2.509,7.268-3.751,10.898c-1.232,3.637-2.634,7.203-4.048,10.761l-3.95,10.047
				c-2.302,5.939-4.184,12.021-5.484,18.23c-1.281,6.21-2.049,12.53-2.275,18.915c-0.574,12.765,1.011,25.834,4.609,38.669
				c3.565,12.845,8.972,25.455,15.644,37.573c13.262,24.371,31.47,46.646,51.576,67.101c10.076,10.243,20.739,20.001,31.824,29.311
				c11.05,9.33,22.592,18.271,34.49,26.456l0.079,0.055c1.112,0.765,1.395,2.287,0.629,3.399
				C1222.513,1370.837,1221.164,1371.155,1220.086,1370.6z"/>
			<path fill="#168952" d="M924.079,908.51c1.074,0.759,2.56,0.504,3.319-0.569l0.517-0.73c0.313-0.442,0.8-1.23,1.279-1.831
				c0.466-0.639,1.032-1.257,1.527-1.855l1.734-1.688l1.905-1.506c0.579-0.513,1.326-0.926,1.98-1.373
				c0.696-0.421,1.272-0.905,2.029-1.257l2.14-1.109l1.039-0.552l1.14-0.456c5.91-2.504,12.229-4.076,18.827-4.876
				c13.054-1.81,26.696-1.483,40.358-0.331l5.102,0.366l4.157,0.731c1.381,0.159,2.683,0.613,3.998,0.929l1.958,0.492
				c0.649,0.164,1.261,0.463,1.89,0.679c1.236,0.508,2.51,0.826,3.69,1.427c1.178,0.605,2.362,1.134,3.54,1.659
				c2.258,1.334,4.526,2.515,6.585,4.152c4.172,3.088,8.15,6.509,11.54,10.816c3.461,4.186,6.747,8.673,9.399,13.832l1.083,1.848
				l0.961,1.974l0.898,1.823c16.841-3.582,34.578-5.392,52.912-4.648c-0.63-1.499-1.262-2.997-1.919-4.482l-1.294-2.94
				c-0.457-0.975-0.969-1.94-1.453-2.909c-0.985-1.934-1.958-3.871-2.984-5.779c-1.1-1.894-2.26-3.77-3.396-5.645l-1.718-2.805
				l-1.91-2.741c-5.002-7.296-11.08-14.155-17.842-20.373c-6.788-6.187-14.678-11.56-23.197-15.649
				c-4.215-2.134-8.748-3.68-13.216-5.174c-2.297-0.603-4.586-1.202-6.883-1.725c-2.29-0.542-4.653-0.751-6.962-1.107
				c-1.162-0.14-2.313-0.353-3.475-0.417l-3.482-0.162c-2.316-0.06-4.623-0.285-6.905-0.054l-6.798,0.479l-5.843,0.906
				c-15.468,2.417-31.147,6.257-45.875,13.645c-1.827,0.983-3.65,1.784-5.428,2.917c-1.777,1.11-3.542,2.197-5.26,3.332
				c-3.396,2.488-6.708,5.029-9.639,8.13l-1.111,1.106l-1.036,1.237c-0.687,0.821-1.358,1.642-2.009,2.468
				c-0.672,0.794-1.211,1.781-1.802,2.652c-0.56,0.916-1.182,1.735-1.627,2.742c-0.47,0.974-0.937,1.925-1.367,2.887l-1.074,3.016
				c-0.265,1.06-0.558,2.062-0.733,3.132c-0.164,1.108-0.27,2.053-0.275,3.414C923.074,907.3,923.424,908.047,924.079,908.51z"/>
		</g>
		<path fill="#175D5B" d="M995.917,900.511c-6.895-38.331-35.344-75.884-86.075-81.447
			c-56.155-6.158-110.402,80.627-126.499,119.131c-13.755,32.901,49.075,58.929,99.715,52.588S1004.164,946.359,995.917,900.511z"/>
		<path fill="#1E706C" d="M967.32,932.573c-6.895-38.331-35.344-75.883-86.075-81.447c-19.748-2.166-39.258,7.169-56.958,21.851
			c-0.061,0.051-0.144-0.027-0.095-0.089c24.048-30.694,55.404-57.331,87.382-53.824c50.731,5.563,79.18,43.116,86.075,81.447
			c4.149,23.066-11.629,44.163-34.777,60.245c-0.057,0.039-0.127-0.022-0.096-0.084C967.243,951.816,969.083,942.373,967.32,932.573
			z"/>
		<path fill="#D66753" d="M885.392,925.564c-24.799,1.912-36.785-14.813-51.559-35.273c-7.084-9.813-22.808-13.398-29.375-12.582
			c-22.572,2.807-48.324,16.342-47.186,35.208c0.646,10.72,11.588,11.993,13.877,24.655c3.44,19.025-18.862,29.415-15.677,41.138
			c4.575,16.836,59.499,28.256,99.486,5.495c29.673-16.891,49.611-51.744,43.688-58.792
			C896.782,923.194,893.377,924.948,885.392,925.564z"/>
		<g>
			<path fill="#EF6F5E" d="M845.099,905.889c-7.085-9.812-22.808-13.398-29.376-12.582c-22.572,2.807-48.324,16.342-47.186,35.208
				c0.063,1.04,0.224,1.988,0.463,2.869c-3.971-7.31-11.207-9.809-11.729-18.466c-1.138-18.867,24.614-32.402,47.186-35.208
				c6.568-0.816,22.291,2.77,29.375,12.582c14.773,20.46,26.76,37.185,51.559,35.273c7.986-0.616,11.39-2.37,13.255-0.151
				c2.081,2.477,0.958,8.393-2.647,15.75c-0.011,0.022-0.034,0.037-0.058,0.039C871.631,942.735,859.728,926.149,845.099,905.889z"
				/>
			<path fill="#EF6F5E" d="M771.149,937.572c-0.184-1.017-0.429-1.954-0.715-2.834c3.388,5.708,10.225,8.725,11.98,18.432
				c2.965,16.397-13.18,26.381-15.661,36.331c-0.01,0.04-0.055,0.06-0.093,0.041c-6.046-3.027-10.085-6.771-11.188-10.832
				C752.287,966.987,774.589,956.598,771.149,937.572z"/>
		</g>
		<path fill="#FFFFFF" d="M773.99,944.691c-0.008-0.015-0.011-0.029-0.004-0.045c0.434-1.028,16.754-38.821,52.682-0.716
			c6.465,6.856,14.162,3.447,22.452,4.241c0.053,0.005,0.075,0.076,0.028,0.101C845.905,949.998,792.523,977.745,773.99,944.691z"/>
		<polygon fill="#373A39" points="807.609,955.179 807.161,955.166 806.936,954.724 798.705,935.365 790.266,951.813 
			789.768,951.824 789.314,951.806 789.097,951.35 783.71,938.26 781.512,949.937 780.78,950.271 780.413,950.05 773.572,945.243 
			774.381,944.093 780.387,948.315 782.831,935.33 783.927,935.181 784.178,935.704 789.863,949.519 798.289,933.096 
			798.78,933.079 799.229,933.092 799.455,933.534 807.674,952.867 815.166,937.708 816.069,937.659 816.322,938.067 
			824.141,952.77 829.256,945.754 829.939,945.676 830.213,945.923 837.082,952.688 841.663,947.707 842.698,948.66 
			837.455,954.359 836.81,954.381 836.563,954.148 829.76,947.449 824.431,954.756 823.596,954.709 823.378,954.329 
			815.676,939.848 808.107,955.162 		"/>
	</g>
</g>
<g id="_x32__1_">
	<g>
		<g>
			<path fill="#168952" d="M1132.845,1101.938c3.371-8.114,7.152-15.992,11.219-23.715c4.053-7.734,8.381-15.317,12.948-22.777
				c9.157-14.896,19.309-29.243,30.422-42.983c2.792-3.421,5.628-6.818,8.518-10.186c2.896-3.357,5.899-6.625,8.919-9.897
				c6.036-6.546,12.337-12.897,18.913-19.002c13.081-12.245,27.341-23.642,41.955-33.832l10.815-7.343
				c3.492-2.356,7-4.574,9.856-6.587c1.456-1.016,2.685-1.923,3.6-2.613c0.881-0.661,1.397-1.219,0.82-0.709
				c-0.078,0.073-0.153,0.151-0.224,0.232c-0.127,0.127-0.293,0.297-0.427,0.455c-0.195,0.249-0.724,0.853-1.08,1.41
				c-0.957,1.354-1.995,3.273-2.928,6.302c-0.178,0.687-0.393,1.475-0.542,2.267c-0.154,0.789-0.228,1.589-0.32,2.379
				c-0.078,0.794-0.104,1.596-0.078,2.391c-0.007,0.727,0.029,1.452,0.111,2.174c0.103,0.77,0.166,1.322,0.277,1.922
				c0.056,0.297,0.12,0.593,0.192,0.886l0.199,0.786c0.214,0.889,0.602,1.85,0.783,2.341c0.11,0.284,0.279,0.623,0.384,0.844
				c0.077,0.184,0.163,0.362,0.259,0.537c0.25,0.421,0.256,0.484,0.383,0.669c0.154,0.257,0.206,0.218-0.051-0.039
				c-0.181-0.208-0.338-0.434-0.477-0.681c-0.015-0.053-0.083-0.132-0.188-0.228l-0.267-0.269l-0.522-0.55l-0.508-0.564
				l-0.251-0.289l-0.371-0.329l-1.439-1.367l-0.711-0.698l-0.881-0.734l-1.766-1.486c-4.914-4.052-11.03-8.373-17.429-12.605
				c-6.384-4.313-13.203-8.534-20.201-12.726c-6.978-4.207-14.12-8.402-21.404-12.523c-7.275-4.106-14.636-8.262-22.08-12.374
				l-22.529-12.392c-15.135-8.41-30.35-17.074-45.528-27.68c-7.583-5.367-15.145-11.152-22.642-18.719
				c-1.877-2.008-3.723-3.792-5.569-6.183l-2.722-3.412c-0.002-0.002-0.003-0.004-0.005-0.007c-0.899-1.3-1.782-2.652-2.644-3.99
				l-1.28-2.022c-0.347-0.594-0.578-1.06-0.872-1.596l-1.671-3.116c-1.067-2.111-2.151-4.204-3.158-6.351
				c-4.001-8.595-7.521-17.494-10.09-26.906c-2.574-9.387-4.399-19.207-4.655-29.443c-0.197-5.088,0.113-10.299,0.746-15.482
				c0.39-2.604,0.754-5.193,1.392-7.778c0.514-2.587,1.312-5.142,2.083-7.683c3.281-10.146,8.762-19.616,15.521-27.491
				c6.868-7.81,14.879-14.031,23.191-18.938c8.331-4.917,16.98-8.583,25.657-11.509l6.531-2.059c0.002,0,0.004-0.001,0.006-0.002
				l3.685-0.928c1.232-0.291,2.443-0.645,3.702-0.807c2.501-0.382,4.977-0.871,7.49-0.971l3.742-0.252c0.003,0,0.006,0,0.009,0
				l3.726,0.036c2.49-0.042,4.926,0.29,7.368,0.491c1.227,0.082,2.406,0.355,3.607,0.528c1.192,0.209,2.398,0.369,3.567,0.638
				c4.676,1.072,9.258,2.337,13.585,4.035c8.727,3.264,16.735,7.549,24.209,12.328c7.479,4.78,14.504,9.994,21.171,15.48
				c6.664,5.496,13.029,11.215,19.3,16.868c3.139,2.816,6.261,5.623,9.412,8.276l2.364,1.949c0.792,0.602,1.587,1.248,2.382,1.82
				c1.582,1.141,3.218,2.188,4.656,2.801l0.098,0.042c1.399,0.597,2.336,2.078,2.012,3.564c-0.392,1.799-2.149,2.789-3.791,2.375
				c-2.602-0.652-4.679-1.676-6.707-2.711c-1.007-0.525-1.947-1.084-2.928-1.63l-2.808-1.702c-3.673-2.319-7.193-4.726-10.707-7.109
				c-7.003-4.782-13.928-9.488-20.974-13.854c-7.011-4.412-14.148-8.446-21.413-11.9c-7.254-3.464-14.673-6.266-22.081-8.012
				c-7.399-1.764-14.77-2.51-21.722-1.796l-2.593,0.264c-0.003,0-0.007,0-0.01,0.001l-2.536,0.488
				c-1.705,0.238-3.329,0.817-4.97,1.242c-0.829,0.183-1.61,0.549-2.407,0.837l-2.375,0.887c-0.003,0.001-0.005,0.001-0.007,0.002
				l-5.325,2.375c-7.012,3.288-13.609,7.075-19.381,11.454c-5.776,4.37-10.681,9.33-14.393,14.701
				c-3.642,5.41-6.14,11.184-7.399,17.308c-1.218,6.138-1.373,12.591-0.402,19.24c1.777,13.288,7.465,27.01,15.05,39.74
				c0.929,1.604,1.938,3.179,2.915,4.761l1.539,2.343c0.248,0.369,0.529,0.828,0.748,1.124l0.524,0.58
				c0.344,0.391,0.647,0.785,0.973,1.201l1.403,1.386c0.79,0.919,2.123,1.937,3.212,2.931c4.776,4.049,11.027,8.114,17.574,11.96
				c13.187,7.75,27.955,14.76,42.947,21.579c7.544,3.388,15.153,6.728,22.92,9.979l23.498,9.736
				c7.895,3.276,15.889,6.566,23.928,10.082c8.032,3.502,16.118,7.23,24.345,11.384c8.198,4.242,16.468,8.825,25.057,14.92
				l3.239,2.394l1.617,1.21l1.675,1.383l3.333,2.795l0.821,0.712l0.863,0.834l1.719,1.686l1.704,1.702l0.848,0.857
				c0.275,0.269,0.564,0.578,0.87,0.945c1.198,1.387,2.377,2.795,3.533,4.221c1.12,1.344,2.375,3.046,3.653,5.088
				c0.665,1.092,1.261,2.034,1.968,3.408l0.986,1.942c0.333,0.696,0.688,1.53,1.008,2.298c0.63,1.45,1.295,3.432,1.827,5.327
				c0.133,0.449,0.265,0.988,0.389,1.553l0.346,1.662c0.212,1.117,0.399,2.185,0.516,3.484c0.122,1.248,0.2,2.5,0.229,3.752
				c-0.001,1.322-0.055,2.651-0.16,3.973c-0.09,1.319-0.306,2.633-0.545,3.942c-0.243,1.311-0.537,2.622-0.902,3.805
				c-1.465,5.083-3.576,8.856-5.666,11.979c-0.98,1.407-2.097,2.892-3.006,3.92c-0.478,0.558-0.98,1.135-1.459,1.655l-1.328,1.366
				c-3.545,3.515-6.354,5.583-8.876,7.413c-2.499,1.793-4.773,3.245-6.874,4.504c-4.243,2.557-7.97,4.694-11.684,6.736
				l-10.757,5.931c-14.03,7.695-27.515,15.644-40.943,24.324c-6.701,4.329-13.366,8.805-20.032,13.383
				c-3.331,2.291-6.617,4.658-9.929,7.022c-3.332,2.341-6.641,4.733-9.931,7.169c-13.241,9.658-26.357,19.825-39.618,30.185
				l-20.006,15.693c-6.729,5.263-13.457,10.604-20.509,15.773l-0.022,0.017c-1.435,1.052-3.451,0.741-4.503-0.694
				C1132.532,1104.139,1132.431,1102.943,1132.845,1101.938z"/>
			<path fill="#146D40" d="M1348.298,933.23c-0.116-1.299-0.305-2.367-0.517-3.484l-0.346-1.662
				c-0.123-0.565-0.256-1.104-0.389-1.553c-0.532-1.895-1.196-3.876-1.826-5.327c-0.32-0.769-0.676-1.603-1.009-2.298l-0.985-1.942
				c-0.708-1.375-1.304-2.316-1.969-3.408c-1.278-2.042-2.533-3.744-3.653-5.088c-1.156-1.425-2.335-2.834-3.533-4.221
				c-0.306-0.367-0.595-0.676-0.87-0.946l-0.847-0.856l-1.705-1.702l-1.718-1.686l-0.863-0.834l-0.822-0.712l-3.332-2.795
				l-1.676-1.383l-1.617-1.21l-3.239-2.394c-8.589-6.096-16.858-10.678-25.057-14.92c-8.227-4.154-16.312-7.882-24.345-11.384
				c-2.911-1.273-5.814-2.512-8.711-3.735c-0.657-0.278-1.357-0.435-2.071-0.463c-27.322-1.08-55.352,0.678-82.353,6.941
				c-5.179,1.201-6.148,8.188-1.506,10.775c0.653,0.364,1.307,0.728,1.96,1.091l22.53,12.392
				c7.443,4.112,14.804,8.268,22.079,12.374c7.284,4.122,14.428,8.317,21.405,12.524c6.997,4.192,13.816,8.414,20.2,12.726
				c0.937,0.62,1.867,1.241,2.788,1.863c3.406,2.302,3.392,7.325-0.01,9.635l0,0c-14.613,10.19-28.874,21.587-41.954,33.832
				c-6.576,6.104-12.877,12.456-18.914,19.002c-3.02,3.272-6.022,6.54-8.919,9.897c-2.89,3.367-5.726,6.765-8.517,10.186
				c-11.113,13.74-21.266,28.088-30.423,42.983c-4.567,7.459-8.896,15.043-12.948,22.777c-4.065,7.723-7.848,15.601-11.219,23.715
				c-0.414,1.005-0.313,2.2,0.377,3.141c1.052,1.436,3.068,1.746,4.503,0.694l0.022-0.017c7.053-5.169,13.779-10.511,20.509-15.773
				l0.409-0.321l18.948,15.791c0.997,0.831,2.239,1.31,3.537,1.347c6.902,0.196,29.317-0.262,35.292-14.025
				c0.909-2.093,2.882-3.522,5.164-3.522h15.185c3.109,0,5.662-2.43,5.82-5.535c0.201-3.957,0.18-10.434-0.671-20.642
				c-1.252-15.021,16.338-39.898,26.392-52.776c0.433-0.554,0.954-1.015,1.553-1.382c9.455-5.801,19.007-11.322,28.831-16.71
				l10.756-5.931c3.714-2.042,7.44-4.18,11.684-6.736c2.101-1.259,4.375-2.711,6.874-4.504c2.522-1.83,5.331-3.898,8.876-7.413
				l1.329-1.366c0.478-0.521,0.98-1.098,1.458-1.655c0.909-1.028,2.025-2.513,3.007-3.92c2.089-3.123,4.201-6.897,5.666-11.979
				c0.365-1.183,0.658-2.494,0.902-3.805c0.238-1.31,0.454-2.623,0.544-3.942c0.106-1.321,0.159-2.651,0.161-3.973
				C1348.497,935.729,1348.419,934.478,1348.298,933.23z M1289.157,922.531c0.002-0.001,0.003-0.003,0.005-0.005
				c0.069-0.082,0.145-0.159,0.224-0.232C1289.814,921.915,1289.638,922.126,1289.157,922.531z"/>
		</g>
		<path fill="#8DAF37" d="M1264.568,544.641c-0.047,0.089-0.173,0.077-0.197-0.021c-1.752-6.947-37.785-147.259-105.418-209.256
			c-67.837-62.184-18.182,208.756-15.97,220.679c0.021,0.112-0.114,0.172-0.188,0.085c-4.108-4.921-56.552-65.238-168.801-77.71
			c-115.131-12.792,120.668,157.569,128.41,163.144c0.077,0.056,0.056,0.172-0.037,0.193
			c-6.585,1.529-152.181,35.871-181.838,89.536c-29.828,53.975,220.477-6.468,229.007-8.542c0.092-0.022,0.165,0.064,0.125,0.148
			c-1.918,3.977-31.216,65.954-32.613,144.222c-1.414,79.175,102.001-89.132,106.46-96.424c0.053-0.086,0.181-0.066,0.199,0.033
			c1.22,6.589,24.209,129.039,53.735,159.971c29.639,31.05,18.988-189.522,18.477-199.804c-0.006-0.111,0.129-0.159,0.192-0.069
			c4.55,6.471,81.663,114.834,148.949,121.843c68.322,7.117-69.463-173.646-73.6-179.055c-0.048-0.063-0.024-0.141,0.052-0.161
			c6.124-1.546,201.496-51.352,160.247-102.557c-40.783-50.628-192.433,5.503-200.518,8.543c-0.103,0.039-0.188-0.073-0.124-0.162
			c5.211-7.128,104.555-144.238,77.818-199.12C1382.016,324.898,1268.95,536.405,1264.568,544.641z"/>
		<g>
			<path fill="#A1C13E" d="M1187.387,812.595c-1.888,3.088-21.945,35.744-44.151,65.854c-0.079,0.106,0.057,0.247,0.156,0.159
				c13.912-12.395,31.146-34.861,46.076-56.123c0.018-0.024,0.023-0.057,0.018-0.087c-1.072-5.32-1.724-8.797-1.902-9.765
				C1187.564,812.533,1187.439,812.509,1187.387,812.595z"/>
			<path fill="#A1C13E" d="M1036.313,661.163c-0.03-0.023-0.069-0.03-0.104-0.018c-44.867,15.546-98.877,39.743-115.679,70.146
				c-1.965,3.555-2.703,6.608-2.386,9.22c0.01,0.083,0.105,0.125,0.175,0.08c53.315-34.63,142.766-55.732,147.922-56.93
				c0.092-0.022,0.114-0.139,0.037-0.195C1064.638,682.284,1052.831,673.756,1036.313,661.163z"/>
			<path fill="#A1C13E" d="M1228.445,586.543c1.432-2.689,14.309-26.785,31.97-56.215c0.016-0.026,0.021-0.057,0.012-0.086
				c-11.154-38.569-45.482-143.552-101.474-194.877c-26.097-23.923-34.804,1.46-35.515,42.429c-0.001,0.031,0.012,0.062,0.035,0.083
				c67.215,62.296,103.026,201.725,104.773,208.649C1228.271,586.623,1228.398,586.632,1228.445,586.543z"/>
			<path fill="#A1C13E" d="M1106.855,597.933c-0.776-4.186-7.182-39.122-12.461-80.551c-0.004-0.034-0.023-0.064-0.053-0.082
				c-27.547-16.381-67.257-32.983-120.347-38.882c-43.722-4.858-36.831,16.699-11.043,45.612c0.016,0.019,0.039,0.031,0.063,0.036
				c94.99,17.8,139.881,69.446,143.658,73.969C1106.746,598.122,1106.876,598.044,1106.855,597.933z"/>
			<path fill="#A1C13E" d="M1531.761,570.897c-40.783-50.628-192.433,5.503-200.518,8.543c-0.103,0.039-0.188-0.073-0.124-0.162
				c5.211-7.128,104.555-144.238,77.818-199.12c-11.983-24.596-41.033,3.66-69.969,43.316c-0.076,0.105,0.064,0.228,0.164,0.143
				c14.622-12.457,26.89-15.49,33.68-1.555c26.737,54.882-72.607,191.991-77.818,199.12c-0.064,0.088,0.021,0.201,0.125,0.162
				c8.084-3.04,159.733-59.171,200.518-8.543c3.299,4.095,5.078,8.182,5.567,12.235c0.01,0.078,0.095,0.119,0.162,0.08
				C1529.657,608.853,1547.127,589.973,1531.761,570.897z"/>
			<path fill="#A1C13E" d="M1335.338,715.521c2.628,3.437,59.14,77.571,82.555,129.414c0.012,0.025,0.031,0.044,0.057,0.056
				c9.082,4.024,18.184,6.75,27.112,7.68c53.188,5.541-18.53-102.776-54.866-153.589c-0.028-0.04-0.078-0.055-0.125-0.039
				c-28.875,9.746-52.586,15.789-54.678,16.316C1335.315,715.378,1335.289,715.457,1335.338,715.521z"/>
			<path fill="#A1C13E" d="M1259.795,772.802c0.283,5.688,3.66,75.571,1.627,131.734c-0.001,0.017,0.003,0.035,0.01,0.05
				c5.032,11.057,10.403,20.239,16.012,26.114c17.277,18.101,20.863-49.307,20.749-110.717c0-0.027-0.011-0.054-0.029-0.074
				c-21.485-23.673-36.26-44.452-38.175-47.177C1259.924,772.642,1259.789,772.691,1259.795,772.802z"/>
		</g>
		<path fill="#175D5B" d="M1137.844,656.381c11.498-63.918,58.937-126.538,143.533-135.815
			c93.641-10.269,184.098,134.447,210.94,198.654c22.938,54.864-81.833,98.266-166.277,87.691
			C1241.597,796.338,1124.091,732.835,1137.844,656.381z"/>
		<path fill="#1E706C" d="M1185.528,709.846c11.498-63.918,58.937-126.539,143.533-135.816
			c32.931-3.611,65.464,11.956,94.979,36.438c0.103,0.084,0.241-0.045,0.159-0.149c-40.1-51.184-92.387-95.601-145.713-89.752
			c-84.596,9.277-132.035,71.897-143.533,135.815c-6.918,38.463,19.392,73.644,57.993,100.461c0.094,0.065,0.212-0.038,0.16-0.14
			C1185.657,741.935,1182.589,726.188,1185.528,709.846z"/>
		<path fill="#D66753" d="M1322.147,698.158c41.353,3.188,61.34-24.701,85.975-58.819c11.814-16.362,38.032-22.342,48.984-20.98
			c37.64,4.68,80.581,27.25,78.685,58.711c-1.078,17.876-19.323,19.999-23.141,41.113c-5.736,31.725,31.453,49.05,26.142,68.598
			c-7.628,28.075-99.216,47.118-165.896,9.163c-49.481-28.165-82.729-86.285-72.852-98.038
			C1303.154,694.206,1308.83,697.132,1322.147,698.158z"/>
		<g>
			<path fill="#EF6F5E" d="M1389.337,665.349c11.814-16.362,38.033-22.342,48.985-20.98c37.639,4.68,80.581,27.25,78.684,58.711
				c-0.104,1.733-0.374,3.315-0.772,4.783c6.622-12.189,18.687-16.356,19.558-30.793c1.896-31.461-41.045-54.031-78.685-58.711
				c-10.952-1.362-37.17,4.619-48.984,20.98c-24.635,34.118-44.622,62.006-85.975,58.819c-13.317-1.026-18.993-3.952-22.103-0.252
				c-3.471,4.13-1.598,13.995,4.414,26.263c0.018,0.037,0.056,0.062,0.096,0.065
				C1345.094,726.792,1364.943,699.134,1389.337,665.349z"/>
			<path fill="#EF6F5E" d="M1512.65,718.183c0.307-1.696,0.715-3.258,1.191-4.727c-5.649,9.519-17.05,14.549-19.977,30.737
				c-4.944,27.343,21.979,43.989,26.115,60.582c0.017,0.068,0.092,0.1,0.154,0.069c10.082-5.047,16.817-11.29,18.657-18.062
				C1544.104,767.233,1506.914,749.908,1512.65,718.183z"/>
		</g>
		<path fill="#FFFFFF" d="M1507.744,723.561c0.018-0.03,0.022-0.061,0.009-0.092c-0.899-2.129-34.688-80.376-109.075-1.482
			c-13.385,14.196-29.32,7.136-46.484,8.781c-0.11,0.011-0.155,0.157-0.058,0.209
			C1358.85,734.547,1469.373,791.996,1507.744,723.561z"/>
		<g>
			<path fill="#373A39" d="M1438.097,744.819c-0.424,0-0.814-0.243-0.999-0.627l-15.646-31.659l-16.379,30.8
				c-0.181,0.339-0.518,0.559-0.902,0.586c-0.382,0.031-0.75-0.143-0.977-0.455l-10.859-14.89l-14.788,14.569l-0.51,0.019
				c-0.3-0.009-0.587-0.142-0.788-0.364l-10.424-11.33l1.473-1.354l9.806,10.659l14.891-14.669l0.545,0.007
				c0.32,0.027,0.613,0.191,0.803,0.451l10.633,14.579l16.525-31.076c0.19-0.362,0.565-0.589,0.98-0.589c0.004,0,0.009,0,0.014,0
				c0.42,0.005,0.797,0.242,0.982,0.619l15.561,31.484l17.402-40.93c0.165-0.393,0.55-0.659,0.979-0.675
				c0.424-0.011,0.834,0.221,1.031,0.604l17.478,34.063l12.149-29.525c0.189-0.46,0.659-0.731,1.144-0.682
				c0.495,0.053,0.887,0.417,0.976,0.906l4.987,26.501l13.014-9.146l1.15,1.637l-14.145,9.941c-0.309,0.217-0.702,0.264-1.057,0.121
				c-0.353-0.144-0.604-0.452-0.674-0.827l-4.688-24.913l-11.741,28.532c-0.166,0.401-0.551,0.67-0.982,0.687
				c-0.44,0.03-0.836-0.22-1.033-0.604l-17.491-34.09l-17.417,40.965c-0.163,0.395-0.553,0.664-0.989,0.676
				C1438.118,744.819,1438.107,744.819,1438.097,744.819L1438.097,744.819z"/>
		</g>
	</g>
</g>
<g id="_x31_">
	<g>
		<ellipse fill="#0BC1CF" cx="1178.542" cy="1664.283" rx="234.724" ry="22.688"/>
		<polygon fill="#E77B4C" points="1336.031,1626.763 1021.023,1626.763 945.884,1136.911 1411.171,1136.911 		"/>
		<path fill="#DE6F54" d="M1210.861,1200.49h190.557l9.753-63.579H945.884l75.14,489.852h52.72l-35.372-224.475
			C1021.674,1296.318,1103.584,1200.49,1210.861,1200.49z"/>
		<rect x="905.424" y="1053.102" fill="#E77B4C" width="547.651" height="88.145"/>
		<rect x="1020.605" y="1626.763" fill="#DE6F54" width="31.413" height="36.648"/>
		<rect x="1303.321" y="1626.763" fill="#DE6F54" width="31.413" height="36.648"/>
	</g>
</g>
</svg>
